<svg xmlns="http://www.w3.org/2000/svg" viewBox="273 146 132 172" role="img" aria-label="pagent">
  <rect x="296" y="308" width="88" height="18" rx="4" fill="#c0392b"/>
  <g stroke="#e8e0d0" stroke-width="1.2" fill="none">
    <path d="M300 312 Q340 290 380 312"/>
    <path d="M300 312 Q340 278 380 312"/>
    <path d="M300 312 Q340 266 380 312"/>
    <path d="M300 312 Q340 254 380 312"/>
    <path d="M300 312 Q340 242 380 312"/>
    <path d="M300 312 Q340 230 380 312"/>
    <path d="M300 312 Q340 218 380 312"/>
    <path d="M300 312 Q340 207 380 312"/>
  </g>
  <path d="M300 312 Q340 200 380 312" stroke="#e74c3c" stroke-width="3" fill="none"/>
  <line x1="300" y1="316" x2="380" y2="316" stroke="#e74c3c" stroke-width="3"/>
  <ellipse cx="340" cy="308" rx="36" ry="7" fill="#000" fill-opacity="0.07"/>
  <line x1="325" y1="282" x2="316" y2="308" stroke="#444" stroke-width="4" stroke-linecap="round"/>
  <line x1="355" y1="282" x2="364" y2="308" stroke="#444" stroke-width="4" stroke-linecap="round"/>
  <ellipse cx="315" cy="311" rx="7" ry="4" fill="#444"/>
  <ellipse cx="365" cy="311" rx="7" ry="4" fill="#444"/>
  <line x1="300" y1="230" x2="286" y2="268" stroke="#444" stroke-width="4" stroke-linecap="round"/>
  <circle cx="284" cy="272" r="5" fill="#444"/>
  <line x1="380" y1="230" x2="396" y2="212" stroke="#444" stroke-width="4" stroke-linecap="round"/>
  <circle cx="399" cy="208" r="5" fill="#444"/>
  <rect x="296" y="200" width="88" height="84" rx="16" fill="#F6C90E"/>
  <rect x="304" y="206" width="72" height="10" rx="5" fill="#fff" fill-opacity="0.25"/>
  <circle cx="322" cy="232" r="6" fill="#1a1a1a"/>
  <circle cx="358" cy="232" r="6" fill="#1a1a1a"/>
  <circle cx="325" cy="229" r="2" fill="#fff" opacity="0.7"/>
  <circle cx="361" cy="229" r="2" fill="#fff" opacity="0.7"/>
  <path d="M320 253 Q340 264 360 253" fill="none" stroke="#1a1a1a" stroke-width="2.5" stroke-linecap="round"/>
</svg>
